<?xml version="1.0" encoding="UTF-8" standalone="no"?>
<!DOCTYPE svg PUBLIC "-//W3C//DTD SVG 1.1//EN" "http://www.w3.org/Graphics/SVG/1.1/DTD/svg11.dtd">
<svg width="100%" height="100%" viewBox="0 0 1069 186" version="1.1" xmlns="http://www.w3.org/2000/svg" xmlns:xlink="http://www.w3.org/1999/xlink" xml:space="preserve" xmlns:serif="http://www.serif.com/" style="fill-rule:evenodd;clip-rule:evenodd;stroke-linecap:round;stroke-linejoin:round;stroke-miterlimit:1.5;">
    <g transform="matrix(0.111247,0,0,0.111247,154.544,87.8592)">
        <g transform="matrix(2,0,0,2,1377.87,874.188)">
            <text x="0px" y="0px" style="font-family:'RobotoMono-Bold', 'Roboto Mono', monospace;font-size:150px;fill:rgb(85,89,95);">0</text>
        </g>
        <g transform="matrix(2,5.3391e-32,0,2,2376.67,874.188)">
            <text x="0px" y="0px" style="font-family:'RobotoMono-Bold', 'Roboto Mono', monospace;font-size:150px;fill:rgb(85,89,95);">1</text>
        </g>
        <g transform="matrix(2.5401,0,0,1.78937,-28951.6,2612.87)">
            <g transform="matrix(1,0,0,1.41955,0.593009,-1972.64)">
                <circle cx="10997.8" cy="311.495" r="147.488" style="fill:rgb(212,217,221);"/>
            </g>
            <g transform="matrix(0.925112,0,0,1.31324,824.192,-1939.52)">
                <circle cx="10997.8" cy="311.495" r="147.488" style="fill:rgb(238,237,238);"/>
            </g>
        </g>
        <g transform="matrix(2.5401,0,0,2.5401,-28979.8,-870.434)">
            <path d="M10987.4,393.716C10987.4,393.716 11001.2,385.141 11033,365.894C11064.7,346.647 11077,351.776 11077,351.776C11077,351.776 11058.6,339.67 11055.2,330.845C11051.8,322.02 11050.8,317.851 11050.8,317.851C11050.8,317.851 11061,311.767 11063.9,305.298C11066.8,298.83 11085.7,266.816 11072.4,239.1C11059.2,211.384 11034,199.851 11020,198.504C11006.1,197.156 10979.4,202.278 10973.2,206.68C10967.1,211.081 10958.2,213.061 10959,219.296C10959.9,225.53 10958.6,222.518 10954.5,226.602C10950.3,230.685 10943.6,238.424 10950.4,250.707C10957.2,262.991 10955.2,267.825 10951.6,271.234C10948.1,274.644 10930.8,296.062 10938.7,300.035C10946.7,304.008 10950.1,302.793 10949.7,305.959C10949.4,309.125 10950.8,314.506 10953,314.506C10955.3,314.506 10950.9,314.315 10951,317.433C10951.1,320.551 10954.2,321.946 10953.2,324.77C10952.2,327.594 10949,340.212 10955.6,343.04C10962.3,345.867 10974.6,339.692 10978.8,340.151C10982.9,340.61 10988.4,339.403 10988.4,339.403C10988.4,339.403 10987.9,345.261 10994.7,350.986C11001.4,356.711 11002.8,374.633 10987.4,393.716Z" style="fill:rgb(128,144,157);"/>
        </g>
        <g transform="matrix(2.5401,0,0,1.78937,-27942.4,2612.87)">
            <g transform="matrix(1,0,0,1.41955,0.593009,-1972.64)">
                <circle cx="10997.8" cy="311.495" r="147.488" style="fill:rgb(212,217,221);"/>
            </g>
            <g transform="matrix(0.925112,0,0,1.31324,824.192,-1939.52)">
                <circle cx="10997.8" cy="311.495" r="147.488" style="fill:rgb(238,237,238);"/>
            </g>
        </g>
        <g transform="matrix(2.00001,0,0,1.99999,-181.377,83.2811)">
            <text x="0px" y="0px" style="font-family:'RobotoMono-Bold', 'Roboto Mono', monospace;font-size:300px;fill:rgb(128,144,157);">1</text>
        </g>
        <g transform="matrix(2,0,0,2,-1129.12,862.408)">
            <text x="0px" y="0px" style="font-family:'RobotoMono-Bold', 'Roboto Mono', monospace;font-size:150px;fill:rgb(85,89,95);">0</text>
        </g>
        <g transform="matrix(2,0,0,2,-70.1551,862.408)">
            <text x="0px" y="0px" style="font-family:'RobotoMono-Bold', 'Roboto Mono', monospace;font-size:150px;fill:rgb(85,89,95);">1</text>
        </g>
        <g transform="matrix(2,0,0,2,1971.39,-1333.49)">
            <g transform="matrix(1,0,0,1,934.445,1102.95)">
                <text x="0px" y="0px" style="font-family:'RobotoMono-Bold', 'Roboto Mono', monospace;font-size:150px;fill:rgb(85,89,95);">0</text>
            </g>
            <g transform="matrix(1,0,0,1,1463.93,1102.95)">
                <text x="0px" y="0px" style="font-family:'RobotoMono-Bold', 'Roboto Mono', monospace;font-size:150px;fill:rgb(85,89,95);">1</text>
            </g>
        </g>
        <g transform="matrix(3.18858,0,0,3.18858,-546.307,-3272.41)">
            <path d="M2210.39,864.023C2208.06,864.033 2205.78,865.42 2203.64,868.096C2199.51,873.26 2195.79,883.306 2192.78,896.885C2189.15,913.306 2186.57,934.915 2185.47,959.279C2185.08,967.944 2184.86,976.958 2184.87,986.211C2184.86,998.704 2185.25,1010.76 2185.97,1022.11C2187.28,1042.8 2189.71,1061.14 2192.92,1075.51C2195.94,1089.04 2199.67,1099.05 2203.81,1104.19C2205.91,1106.8 2208.12,1108.16 2210.39,1108.16C2212.66,1108.17 2214.88,1106.81 2216.99,1104.21C2221.14,1099.08 2224.91,1089.07 2227.99,1075.54C2231.72,1059.13 2234.46,1037.53 2235.64,1013.16C2236.07,1004.49 2236.29,995.47 2236.3,986.211C2236.3,950.916 2233.16,919.107 2228.15,896.85C2225.09,883.267 2221.32,873.227 2217.16,868.075C2215,865.405 2212.72,864.023 2210.39,864.023ZM2210.39,865.068C2212.45,865.068 2214.43,866.366 2216.35,868.732C2220.44,873.805 2224.12,883.706 2227.13,897.079C2232.14,919.279 2235.27,951.006 2235.28,986.211C2235.28,995.454 2235.07,1004.46 2234.68,1013.11C2233.56,1037.43 2230.95,1059 2227.29,1075.38C2224.3,1088.8 2220.62,1098.73 2216.52,1103.83C2214.55,1106.27 2212.51,1107.58 2210.39,1107.59C2208.26,1107.59 2206.21,1106.28 2204.24,1103.85C2200.11,1098.76 2196.39,1088.83 2193.35,1075.41C2190.09,1061.07 2187.61,1042.75 2186.26,1022.09C2185.51,1010.75 2185.12,998.698 2185.11,986.211C2185.12,976.962 2185.33,967.952 2185.76,959.293C2186.96,934.971 2189.73,913.412 2193.48,897.044C2196.55,883.667 2200.28,873.773 2204.41,868.711C2206.33,866.349 2208.32,865.06 2210.39,865.068Z" style="fill:white;fill-opacity:0.81;"/>
        </g>
        <g transform="matrix(1.95244e-16,3.18858,-3.18858,1.95244e-16,9639.93,-7175.81)">
            <path d="M2210.39,864.023C2208.06,864.033 2205.78,865.42 2203.64,868.096C2199.51,873.26 2195.79,883.306 2192.78,896.885C2189.15,913.306 2186.57,934.915 2185.47,959.279C2185.08,967.944 2184.86,976.958 2184.87,986.211C2184.86,998.704 2185.25,1010.76 2185.97,1022.11C2187.28,1042.8 2189.71,1061.14 2192.92,1075.51C2195.94,1089.04 2199.67,1099.05 2203.81,1104.19C2205.91,1106.8 2208.12,1108.16 2210.39,1108.16C2212.66,1108.17 2214.88,1106.81 2216.99,1104.21C2221.14,1099.08 2224.91,1089.07 2227.99,1075.54C2231.72,1059.13 2234.46,1037.53 2235.64,1013.16C2236.07,1004.49 2236.29,995.47 2236.3,986.211C2236.3,950.916 2233.16,919.107 2228.15,896.85C2225.09,883.267 2221.32,873.227 2217.16,868.075C2215,865.405 2212.72,864.023 2210.39,864.023ZM2210.39,865.068C2212.45,865.068 2214.43,866.366 2216.35,868.732C2220.44,873.805 2224.12,883.706 2227.13,897.079C2232.14,919.279 2235.27,951.006 2235.28,986.211C2235.28,995.454 2235.07,1004.46 2234.68,1013.11C2233.56,1037.43 2230.95,1059 2227.29,1075.38C2224.3,1088.8 2220.62,1098.73 2216.52,1103.83C2214.55,1106.27 2212.51,1107.58 2210.39,1107.59C2208.26,1107.59 2206.21,1106.28 2204.24,1103.85C2200.11,1098.76 2196.39,1088.83 2193.35,1075.41C2190.09,1061.07 2187.61,1042.75 2186.26,1022.09C2185.51,1010.75 2185.12,998.698 2185.11,986.211C2185.12,976.962 2185.33,967.952 2185.76,959.293C2186.96,934.971 2189.73,913.412 2193.48,897.044C2196.55,883.667 2200.28,873.773 2204.41,868.711C2206.33,866.349 2208.32,865.06 2210.39,865.068Z" style="fill:white;fill-opacity:0.81;"/>
        </g>
        <g transform="matrix(3.18858,0,0,3.18858,535.713,-3272.41)">
            <path d="M2210.39,864.023C2208.06,864.033 2205.78,865.42 2203.64,868.096C2199.51,873.26 2195.79,883.306 2192.78,896.885C2189.15,913.306 2186.57,934.915 2185.47,959.279C2185.08,967.944 2184.86,976.958 2184.87,986.211C2184.86,998.704 2185.25,1010.76 2185.97,1022.11C2187.28,1042.8 2189.71,1061.14 2192.92,1075.51C2195.94,1089.04 2199.67,1099.05 2203.81,1104.19C2205.91,1106.8 2208.12,1108.16 2210.39,1108.16C2212.66,1108.17 2214.88,1106.81 2216.99,1104.21C2221.14,1099.08 2224.91,1089.07 2227.99,1075.54C2231.72,1059.13 2234.46,1037.53 2235.64,1013.16C2236.07,1004.49 2236.29,995.47 2236.3,986.211C2236.3,950.916 2233.16,919.107 2228.15,896.85C2225.09,883.267 2221.32,873.227 2217.16,868.075C2215,865.405 2212.72,864.023 2210.39,864.023ZM2210.39,865.068C2212.45,865.068 2214.43,866.366 2216.35,868.732C2220.44,873.805 2224.12,883.706 2227.13,897.079C2232.14,919.279 2235.27,951.006 2235.28,986.211C2235.28,995.454 2235.07,1004.46 2234.68,1013.11C2233.56,1037.43 2230.95,1059 2227.29,1075.38C2224.3,1088.8 2220.62,1098.73 2216.52,1103.83C2214.55,1106.27 2212.51,1107.58 2210.39,1107.59C2208.26,1107.59 2206.21,1106.28 2204.24,1103.85C2200.11,1098.76 2196.39,1088.83 2193.35,1075.41C2190.09,1061.07 2187.61,1042.75 2186.26,1022.09C2185.51,1010.75 2185.12,998.698 2185.11,986.211C2185.12,976.962 2185.33,967.952 2185.76,959.293C2186.96,934.971 2189.73,913.412 2193.48,897.044C2196.55,883.667 2200.28,873.773 2204.41,868.711C2206.33,866.349 2208.32,865.06 2210.39,865.068Z" style="fill:white;fill-opacity:0.81;"/>
        </g>
        <g transform="matrix(2,0,0,2,6453.03,872.408)">
            <text x="0px" y="0px" style="font-family:'RobotoMono-Bold', 'Roboto Mono', monospace;font-size:150px;fill:rgb(85,89,95);">0</text>
        </g>
        <g transform="matrix(2,0,0,2,7511.99,872.408)">
            <text x="0px" y="0px" style="font-family:'RobotoMono-Bold', 'Roboto Mono', monospace;font-size:150px;fill:rgb(85,89,95);">1</text>
        </g>
        <g transform="matrix(7.22165,0,0,7.28492,1022.89,-698.858)">
            <path d="M100.167,33.471C100.167,23.242 91.789,14.936 81.47,14.936L25.378,14.936C15.058,14.936 6.68,23.242 6.68,33.471L6.68,125.495C6.68,135.724 15.058,144.03 25.378,144.03L81.47,144.03C91.789,144.03 100.167,135.724 100.167,125.495L100.167,33.471Z" style="fill:rgb(235,235,235);stroke:black;stroke-width:4.14px;"/>
        </g>
        <g transform="matrix(7.28491,0,0,7.28492,950.252,-740.863)">
            <circle cx="62.932" cy="40.404" r="3.838"/>
        </g>
        <g transform="matrix(7.28491,0,0,7.28492,950.252,-125.287)">
            <circle cx="62.932" cy="40.404" r="3.838"/>
        </g>
        <g transform="matrix(7.28491,0,0,7.28492,947.054,-740.863)">
            <rect x="51.592" y="60.054" width="23.56" height="48.351"/>
        </g>
        <g id="slider" transform="matrix(7.28491,0,0,7.28492,1400.14,-549.306)">
            <rect x="-6.506" y="37.286" width="15.361" height="25.583" style="fill:rgb(235,235,235);"/>
        </g>
        <g transform="matrix(7.22165,0,0,7.28492,2057.07,-698.858)">
            <path d="M100.167,33.471C100.167,23.242 91.789,14.936 81.47,14.936L25.378,14.936C15.058,14.936 6.68,23.242 6.68,33.471L6.68,125.495C6.68,135.724 15.058,144.03 25.378,144.03L81.47,144.03C91.789,144.03 100.167,135.724 100.167,125.495L100.167,33.471Z" style="fill:rgb(235,235,235);stroke:black;stroke-width:4.14px;"/>
        </g>
        <g transform="matrix(7.28491,0,0,7.28492,1984.43,-740.863)">
            <circle cx="62.932" cy="40.404" r="3.838"/>
        </g>
        <g transform="matrix(7.28491,0,0,7.28492,1984.43,-125.287)">
            <circle cx="62.932" cy="40.404" r="3.838"/>
        </g>
        <g transform="matrix(7.28491,0,0,7.28492,1981.23,-740.863)">
            <rect x="51.592" y="60.054" width="23.56" height="48.351"/>
        </g>
        <g id="slider1" serif:id="slider" transform="matrix(7.28491,0,0,7.28492,2434.32,-435.304)">
            <rect x="-6.506" y="37.286" width="15.361" height="25.583" style="fill:rgb(235,235,235);"/>
        </g>
    </g>
    <g transform="matrix(91.6621,-2.21248e-14,2.21248e-14,91.6621,910.156,82.2327)">
        <circle cx="-0.332" cy="-0.121" r="0.5" style="fill:url(#_Radial1);"/>
    </g>
    <g transform="matrix(-0.778446,0,0,0.778446,1198.97,-188.059)">
        <ellipse cx="410.134" cy="332.981" rx="58.875" ry="58.875" style="fill:none;stroke:rgb(165,165,165);stroke-width:2.83px;stroke-linecap:butt;stroke-linejoin:miter;stroke-miterlimit:22.9256;"/>
    </g>
    <g transform="matrix(0.778446,0,0,0.778446,560.436,-198.527)">
        <path d="M353.664,343.003C356.281,340.709 360.291,338.879 365.042,337.423C379.221,333.08 400.01,332.075 410.133,332.075C415.607,332.075 420.905,332.269 425.933,332.631C431.196,333.01 436.162,333.574 440.721,334.294C445.591,335.063 469.009,339.128 469.009,347.334" style="fill:none;fill-rule:nonzero;stroke:rgb(165,165,165);stroke-width:2.83px;stroke-miterlimit:22.9256;stroke-dasharray:5.67,8.5;"/>
    </g>
    <g transform="matrix(0.778446,0,0,0.778446,560.436,-188.059)">
        <path d="M410.133,391.856C423.157,391.856 433.715,365.497 433.715,332.981C433.715,300.465 423.157,274.106 410.133,274.106" style="fill:none;fill-rule:nonzero;stroke:rgb(165,165,165);stroke-width:2.83px;stroke-miterlimit:22.9256;stroke-dasharray:5.67,8.5;"/>
    </g>
    <g transform="matrix(0.778446,0,0,0.778446,560.436,-188.059)">
        <path d="M418.039,277.496C415.568,275.301 412.906,274.106 410.133,274.106C397.11,274.106 386.552,300.465 386.552,332.981C386.552,365.497 397.11,391.856 410.133,391.856C416.353,391.856 421.104,385.929 424.095,380.434M433.649,328.539C433.476,322.764 432.969,317.22 432.178,312.029" style="fill:none;fill-rule:nonzero;stroke:rgb(165,165,165);stroke-width:2.83px;stroke-miterlimit:22.9256;"/>
    </g>
    <g transform="matrix(0.778446,0,0,0.778446,560.436,-186.658)">
        <path d="M358.451,324.7C354.1,326.879 351.258,329.643 351.258,332.086C351.258,340.205 377.618,346.786 410.133,346.786C442.649,346.786 469.009,340.205 469.009,332.086C469.009,330.001 467.395,328.014 464.475,326.204M440.07,318.944C435.659,318.268 430.877,317.736 425.824,317.375" style="fill:none;fill-rule:nonzero;stroke:rgb(165,165,165);stroke-width:2.83px;stroke-miterlimit:22.9256;"/>
    </g>
    <g transform="matrix(0.778446,0,0,0.778446,680.076,-133.963)">
        <g transform="matrix(0,-1,-1,0,612.391,495.647)">
            <path d="M233.353,356.01L279.41,356.01" style="fill:none;fill-rule:nonzero;stroke:rgb(12,123,136);stroke-width:3.85px;stroke-miterlimit:22.9256;"/>
        </g>
        <g transform="matrix(1,0,0,1,0,-171.654)">
            <path d="M251.065,389.476L261.698,389.476L256.381,377.454L251.065,389.476Z" style="fill:rgb(12,123,136);"/>
        </g>
    </g>
    <g transform="matrix(91.6621,-2.21248e-14,2.21248e-14,91.6621,1027.9,82.2327)">
        <circle cx="-0.332" cy="-0.121" r="0.5" style="fill:url(#_Radial2);"/>
    </g>
    <g transform="matrix(-0.778446,0,0,0.778446,1316.71,-188.059)">
        <ellipse cx="410.134" cy="332.981" rx="58.875" ry="58.875" style="fill:none;stroke:rgb(165,165,165);stroke-width:2.83px;stroke-linecap:butt;stroke-linejoin:miter;stroke-miterlimit:22.9256;"/>
    </g>
    <g transform="matrix(0.778446,0,0,0.778446,678.18,-198.527)">
        <path d="M353.664,343.003C356.281,340.709 360.291,338.879 365.042,337.423C379.221,333.08 400.01,332.075 410.133,332.075C415.607,332.075 420.905,332.269 425.933,332.631C431.196,333.01 436.162,333.574 440.721,334.294C445.591,335.063 469.009,339.128 469.009,347.334" style="fill:none;fill-rule:nonzero;stroke:rgb(165,165,165);stroke-width:2.83px;stroke-miterlimit:22.9256;stroke-dasharray:5.67,8.5;"/>
    </g>
    <g transform="matrix(0.778446,0,0,0.778446,678.18,-188.059)">
        <path d="M410.133,391.856C423.157,391.856 433.715,365.497 433.715,332.981C433.715,300.465 423.157,274.106 410.133,274.106" style="fill:none;fill-rule:nonzero;stroke:rgb(165,165,165);stroke-width:2.83px;stroke-miterlimit:22.9256;stroke-dasharray:5.67,8.5;"/>
    </g>
    <g transform="matrix(0.778446,0,0,0.778446,678.18,-188.059)">
        <path d="M418.039,277.496C415.568,275.301 412.906,274.106 410.133,274.106C397.11,274.106 386.552,300.465 386.552,332.981C386.552,365.497 397.11,391.856 410.133,391.856C416.353,391.856 421.104,385.929 424.095,380.434M433.649,328.539C433.476,322.764 432.969,317.22 432.178,312.029" style="fill:none;fill-rule:nonzero;stroke:rgb(165,165,165);stroke-width:2.83px;stroke-miterlimit:22.9256;"/>
    </g>
    <g transform="matrix(0.778446,0,0,0.778446,678.18,-186.658)">
        <path d="M358.451,324.7C354.1,326.879 351.258,329.643 351.258,332.086C351.258,340.205 377.618,346.786 410.133,346.786C442.649,346.786 469.009,340.205 469.009,332.086C469.009,330.001 467.395,328.014 464.475,326.204M440.07,318.944C435.659,318.268 430.877,317.736 425.824,317.375" style="fill:none;fill-rule:nonzero;stroke:rgb(165,165,165);stroke-width:2.83px;stroke-miterlimit:22.9256;"/>
    </g>
    <g transform="matrix(-0.778446,9.53322e-17,-9.53322e-17,-0.778446,1196.98,277.036)">
        <g transform="matrix(0,-1,-1,0,612.391,495.647)">
            <path d="M233.353,356.01L279.41,356.01" style="fill:none;fill-rule:nonzero;stroke:rgb(12,123,136);stroke-width:3.85px;stroke-miterlimit:22.9256;"/>
        </g>
        <g transform="matrix(1,0,0,1,0,-171.654)">
            <path d="M251.065,389.476L261.698,389.476L256.381,377.454L251.065,389.476Z" style="fill:rgb(12,123,136);"/>
        </g>
    </g>
    <g transform="matrix(91.6621,-2.21248e-14,2.21248e-14,91.6621,619.799,82.2327)">
        <circle cx="-0.332" cy="-0.121" r="0.5" style="fill:url(#_Radial3);"/>
    </g>
    <g transform="matrix(-0.778446,0,0,0.778446,908.613,-188.059)">
        <ellipse cx="410.134" cy="332.981" rx="58.875" ry="58.875" style="fill:none;stroke:rgb(165,165,165);stroke-width:2.83px;stroke-linecap:butt;stroke-linejoin:miter;stroke-miterlimit:22.9256;"/>
    </g>
    <g transform="matrix(0.778446,0,0,0.778446,270.079,-198.527)">
        <path d="M353.664,343.003C356.281,340.709 360.291,338.879 365.042,337.423C379.221,333.08 400.01,332.075 410.133,332.075C415.607,332.075 420.905,332.269 425.933,332.631C431.196,333.01 436.162,333.574 440.721,334.294C445.591,335.063 469.009,339.128 469.009,347.334" style="fill:none;fill-rule:nonzero;stroke:rgb(165,165,165);stroke-width:2.83px;stroke-miterlimit:22.9256;stroke-dasharray:5.67,8.5;"/>
    </g>
    <g transform="matrix(0.778446,0,0,0.778446,270.079,-188.059)">
        <path d="M410.133,391.856C423.157,391.856 433.715,365.497 433.715,332.981C433.715,300.465 423.157,274.106 410.133,274.106" style="fill:none;fill-rule:nonzero;stroke:rgb(165,165,165);stroke-width:2.83px;stroke-miterlimit:22.9256;stroke-dasharray:5.67,8.5;"/>
    </g>
    <g transform="matrix(0.778446,0,0,0.778446,270.079,-188.059)">
        <path d="M418.039,277.496C415.568,275.301 412.906,274.106 410.133,274.106C397.11,274.106 386.552,300.465 386.552,332.981C386.552,365.497 397.11,391.856 410.133,391.856C416.353,391.856 421.104,385.929 424.095,380.434M433.649,328.539C433.476,322.764 432.969,317.22 432.178,312.029" style="fill:none;fill-rule:nonzero;stroke:rgb(165,165,165);stroke-width:2.83px;stroke-miterlimit:22.9256;"/>
    </g>
    <g transform="matrix(0.778446,0,0,0.778446,270.079,-186.658)">
        <path d="M358.451,324.7C354.1,326.879 351.258,329.643 351.258,332.086C351.258,340.205 377.618,346.786 410.133,346.786C442.649,346.786 469.009,340.205 469.009,332.086C469.009,330.001 467.395,328.014 464.475,326.204M440.07,318.944C435.659,318.268 430.877,317.736 425.824,317.375" style="fill:none;fill-rule:nonzero;stroke:rgb(165,165,165);stroke-width:2.83px;stroke-miterlimit:22.9256;"/>
    </g>
    <g transform="matrix(-0.413391,-0.659611,0.659611,-0.413391,541.261,337.407)">
        <g transform="matrix(2.93963e-16,-0.370321,-1,7.67064e-16,612.391,319.709)">
            <path d="M233.353,356.01L279.41,356.01" style="fill:none;fill-rule:nonzero;stroke:rgb(12,123,136);stroke-width:3.85px;stroke-miterlimit:22.9256;"/>
        </g>
        <g transform="matrix(1,0,0,1,0,-171.654)">
            <path d="M251.065,389.476L261.698,389.476L256.381,377.454L251.065,389.476Z" style="fill:rgb(12,123,136);"/>
        </g>
    </g>
    <g transform="matrix(91.6621,-2.21248e-14,2.21248e-14,91.6621,737.543,82.2327)">
        <circle cx="-0.332" cy="-0.121" r="0.5" style="fill:url(#_Radial4);"/>
    </g>
    <g transform="matrix(-0.778446,0,0,0.778446,1026.36,-188.059)">
        <ellipse cx="410.134" cy="332.981" rx="58.875" ry="58.875" style="fill:none;stroke:rgb(165,165,165);stroke-width:2.83px;stroke-linecap:butt;stroke-linejoin:miter;stroke-miterlimit:22.9256;"/>
    </g>
    <g transform="matrix(0.778446,0,0,0.778446,387.823,-198.527)">
        <path d="M353.664,343.003C356.281,340.709 360.291,338.879 365.042,337.423C379.221,333.08 400.01,332.075 410.133,332.075C415.607,332.075 420.905,332.269 425.933,332.631C431.196,333.01 436.162,333.574 440.721,334.294C445.591,335.063 469.009,339.128 469.009,347.334" style="fill:none;fill-rule:nonzero;stroke:rgb(165,165,165);stroke-width:2.83px;stroke-miterlimit:22.9256;stroke-dasharray:5.67,8.5;"/>
    </g>
    <g transform="matrix(0.778446,0,0,0.778446,387.823,-188.059)">
        <path d="M410.133,391.856C423.157,391.856 433.715,365.497 433.715,332.981C433.715,300.465 423.157,274.106 410.133,274.106" style="fill:none;fill-rule:nonzero;stroke:rgb(165,165,165);stroke-width:2.83px;stroke-miterlimit:22.9256;stroke-dasharray:5.67,8.5;"/>
    </g>
    <g transform="matrix(0.778446,0,0,0.778446,387.823,-188.059)">
        <path d="M418.039,277.496C415.568,275.301 412.906,274.106 410.133,274.106C397.11,274.106 386.552,300.465 386.552,332.981C386.552,365.497 397.11,391.856 410.133,391.856C416.353,391.856 421.104,385.929 424.095,380.434M433.649,328.539C433.476,322.764 432.969,317.22 432.178,312.029" style="fill:none;fill-rule:nonzero;stroke:rgb(165,165,165);stroke-width:2.83px;stroke-miterlimit:22.9256;"/>
    </g>
    <g transform="matrix(0.778446,0,0,0.778446,387.823,-186.658)">
        <path d="M358.451,324.7C354.1,326.879 351.258,329.643 351.258,332.086C351.258,340.205 377.618,346.786 410.133,346.786C442.649,346.786 469.009,340.205 469.009,332.086C469.009,330.001 467.395,328.014 464.475,326.204M440.07,318.944C435.659,318.268 430.877,317.736 425.824,317.375" style="fill:none;fill-rule:nonzero;stroke:rgb(165,165,165);stroke-width:2.83px;stroke-miterlimit:22.9256;"/>
    </g>
    <g transform="matrix(0.389223,0.674154,-0.674154,0.389223,765.1,-192.038)">
        <g transform="matrix(2.93963e-16,-0.370321,-1,7.67064e-16,612.391,319.709)">
            <path d="M233.353,356.01L279.41,356.01" style="fill:none;fill-rule:nonzero;stroke:rgb(12,123,136);stroke-width:3.85px;stroke-miterlimit:22.9256;"/>
        </g>
        <g transform="matrix(1,0,0,1,0,-171.654)">
            <path d="M251.065,389.476L261.698,389.476L256.381,377.454L251.065,389.476Z" style="fill:rgb(12,123,136);"/>
        </g>
    </g>
    <defs>
        <radialGradient id="_Radial1" cx="0" cy="0" r="1" gradientUnits="userSpaceOnUse" gradientTransform="matrix(-0.211309,-0.453154,-0.453154,0.211309,-0.582232,-0.370923)"><stop offset="0" style="stop-color:rgb(237,237,237);stop-opacity:1"/><stop offset="1" style="stop-color:rgb(204,204,204);stop-opacity:1"/></radialGradient>
        <radialGradient id="_Radial2" cx="0" cy="0" r="1" gradientUnits="userSpaceOnUse" gradientTransform="matrix(-0.211309,-0.453154,-0.453154,0.211309,-0.582232,-0.370923)"><stop offset="0" style="stop-color:rgb(237,237,237);stop-opacity:1"/><stop offset="1" style="stop-color:rgb(204,204,204);stop-opacity:1"/></radialGradient>
        <radialGradient id="_Radial3" cx="0" cy="0" r="1" gradientUnits="userSpaceOnUse" gradientTransform="matrix(-0.211309,-0.453154,-0.453154,0.211309,-0.582232,-0.370923)"><stop offset="0" style="stop-color:rgb(237,237,237);stop-opacity:1"/><stop offset="1" style="stop-color:rgb(204,204,204);stop-opacity:1"/></radialGradient>
        <radialGradient id="_Radial4" cx="0" cy="0" r="1" gradientUnits="userSpaceOnUse" gradientTransform="matrix(-0.211309,-0.453154,-0.453154,0.211309,-0.582232,-0.370923)"><stop offset="0" style="stop-color:rgb(237,237,237);stop-opacity:1"/><stop offset="1" style="stop-color:rgb(204,204,204);stop-opacity:1"/></radialGradient>
    </defs>
</svg>
