<?xml version="1.0" encoding="UTF-8" standalone="no"?>
<!DOCTYPE svg PUBLIC "-//W3C//DTD SVG 1.1//EN" "http://www.w3.org/Graphics/SVG/1.1/DTD/svg11.dtd">
<svg width="100%" height="100%" viewBox="0 0 1800 1150" version="1.1" xmlns="http://www.w3.org/2000/svg" xmlns:xlink="http://www.w3.org/1999/xlink" xml:space="preserve" xmlns:serif="http://www.serif.com/" style="fill-rule:evenodd;clip-rule:evenodd;stroke-miterlimit:22.9256;">
    <g>
        <g transform="matrix(535.249,-1.93792e-13,1.93792e-13,535.249,1660.81,936.715)">
            <circle cx="-0.332" cy="-0.121" r="0.5" style="fill:url(#_Radial1);"/>
        </g>
        <g transform="matrix(-4.54564,0,0,4.54564,2648.55,-641.62)">
            <circle cx="256.414" cy="332.981" r="58.875" style="fill:none;stroke:rgb(165,165,165);stroke-width:2.83px;"/>
        </g>
        <g transform="matrix(4.54564,0,0,4.54564,317.415,-702.748)">
            <path d="M199.945,343.003C202.562,340.709 206.571,338.879 211.323,337.423C225.502,333.08 246.291,332.075 256.414,332.075C261.887,332.075 267.186,332.269 272.214,332.631C277.477,333.01 282.443,333.574 287.002,334.294C291.872,335.063 315.289,339.128 315.289,347.334" style="fill:none;fill-rule:nonzero;stroke:rgb(165,165,165);stroke-width:2.83px;stroke-linecap:round;stroke-linejoin:round;stroke-dasharray:5.67,8.5;"/>
        </g>
        <g transform="matrix(4.54564,0,0,4.54564,317.415,-633.437)">
            <path d="M204.732,324.7C200.381,326.879 197.539,329.643 197.539,332.086C197.539,340.205 223.899,346.786 256.414,346.786C288.93,346.786 315.289,340.205 315.289,332.086C315.289,330.001 313.676,328.014 310.755,326.204M286.351,318.944C281.939,318.268 277.158,317.736 272.104,317.375" style="fill:none;fill-rule:nonzero;stroke:rgb(165,165,165);stroke-width:2.83px;stroke-linecap:round;stroke-linejoin:round;"/>
        </g>
        <g transform="matrix(4.54564,0,0,4.54564,317.415,-641.62)">
            <path d="M256.414,391.856C269.438,391.856 279.995,365.497 279.995,332.981C279.995,300.465 269.438,274.106 256.414,274.106" style="fill:none;fill-rule:nonzero;stroke:rgb(165,165,165);stroke-width:2.83px;stroke-linecap:round;stroke-linejoin:round;stroke-dasharray:5.67,8.5;"/>
        </g>
        <g transform="matrix(4.54564,0,0,4.54564,317.415,-641.62)">
            <path d="M264.32,277.496C261.849,275.301 259.187,274.106 256.414,274.106C243.391,274.106 232.833,300.465 232.833,332.981C232.833,365.497 243.391,391.856 256.414,391.856C262.634,391.856 267.385,385.929 270.375,380.434M279.929,328.539C279.757,322.764 279.25,317.22 278.459,312.029" style="fill:none;fill-rule:nonzero;stroke:rgb(165,165,165);stroke-width:2.83px;stroke-linecap:round;stroke-linejoin:round;"/>
        </g>
        <g transform="matrix(-5.5668e-16,4.54564,4.54564,5.5668e-16,-135.459,-180.288)">
            <path d="M233.353,356.01L279.41,356.01" style="fill:none;fill-rule:nonzero;stroke:rgb(12,123,136);stroke-width:3.54px;stroke-linecap:round;stroke-linejoin:round;"/>
        </g>
        <g transform="matrix(-4.54564,-5.5668e-16,5.5668e-16,-4.54564,2648.25,2853.02)">
            <path d="M251.065,389.476L261.698,389.476L256.381,377.454L251.065,389.476Z" style="fill:rgb(12,123,136);"/>
        </g>
        <g transform="matrix(535.249,-1.93792e-13,1.93792e-13,535.249,1660.81,359.738)">
            <circle cx="-0.332" cy="-0.121" r="0.5" style="fill:url(#_Radial2);"/>
        </g>
        <g transform="matrix(-4.54564,0,0,4.54564,2648.55,-1218.6)">
            <circle cx="256.414" cy="332.981" r="58.875" style="fill:none;stroke:rgb(165,165,165);stroke-width:2.83px;"/>
        </g>
        <g transform="matrix(4.54564,0,0,4.54564,317.415,-1279.72)">
            <path d="M199.945,343.003C202.562,340.709 206.571,338.879 211.323,337.423C225.502,333.08 246.291,332.075 256.414,332.075C261.887,332.075 267.186,332.269 272.214,332.631C277.477,333.01 282.443,333.574 287.002,334.294C291.872,335.063 315.289,339.128 315.289,347.334" style="fill:none;fill-rule:nonzero;stroke:rgb(165,165,165);stroke-width:2.83px;stroke-linecap:round;stroke-linejoin:round;stroke-dasharray:5.67,8.5;"/>
        </g>
        <g transform="matrix(4.54564,0,0,4.54564,317.415,-1210.41)">
            <path d="M204.732,324.7C200.381,326.879 197.539,329.643 197.539,332.086C197.539,340.205 223.899,346.786 256.414,346.786C288.93,346.786 315.289,340.205 315.289,332.086C315.289,330.001 313.676,328.014 310.755,326.204M286.351,318.944C281.939,318.268 277.158,317.736 272.104,317.375" style="fill:none;fill-rule:nonzero;stroke:rgb(165,165,165);stroke-width:2.83px;stroke-linecap:round;stroke-linejoin:round;"/>
        </g>
        <g transform="matrix(4.54564,0,0,4.54564,317.415,-1218.6)">
            <path d="M256.414,391.856C269.438,391.856 279.995,365.497 279.995,332.981C279.995,300.465 269.438,274.106 256.414,274.106" style="fill:none;fill-rule:nonzero;stroke:rgb(165,165,165);stroke-width:2.83px;stroke-linecap:round;stroke-linejoin:round;stroke-dasharray:5.67,8.5;"/>
        </g>
        <g transform="matrix(4.54564,0,0,4.54564,317.415,-1218.6)">
            <path d="M264.32,277.496C261.849,275.301 259.187,274.106 256.414,274.106C243.391,274.106 232.833,300.465 232.833,332.981C232.833,365.497 243.391,391.856 256.414,391.856C262.634,391.856 267.385,385.929 270.375,380.434M279.929,328.539C279.757,322.764 279.25,317.22 278.459,312.029" style="fill:none;fill-rule:nonzero;stroke:rgb(165,165,165);stroke-width:2.83px;stroke-linecap:round;stroke-linejoin:round;"/>
        </g>
        <g transform="matrix(1.97215e-31,-4.54564,-4.54564,-1.97215e-31,3101.12,1351.78)">
            <path d="M233.353,356.01L279.41,356.01" style="fill:none;fill-rule:nonzero;stroke:rgb(12,123,136);stroke-width:3.54px;stroke-linecap:round;stroke-linejoin:round;"/>
        </g>
        <g transform="matrix(4.54564,1.97215e-31,-1.97215e-31,4.54564,317.415,-1681.53)">
            <path d="M251.065,389.476L261.698,389.476L256.381,377.454L251.065,389.476Z" style="fill:rgb(12,123,136);"/>
        </g>
    </g>
    <g>
        <path d="M655.739,279.776L1143.69,279.776" style="fill:none;stroke:rgb(82,89,97);stroke-width:3.33px;stroke-linecap:round;stroke-linejoin:round;stroke-miterlimit:1.5;"/>
    </g>
    <g>
        <path d="M981.511,214.925C981.511,206.082 974.334,198.905 965.492,198.905L837.339,198.905C828.496,198.905 821.32,206.082 821.32,214.925L821.32,343.077C821.32,351.92 828.496,359.097 837.339,359.097L965.492,359.097C974.334,359.097 981.511,351.92 981.511,343.077L981.511,214.925Z" style="fill:rgb(80,90,99);"/>
    </g>
    <g>
        <g transform="matrix(1,0,0,1,869.496,311.626)">
            <text x="0px" y="0px" style="font-family:'RobotoMono-Medium', 'Roboto Mono', monospace;font-size:106.667px;fill:white;">H</text>
        </g>
        <path d="M655.739,875.743L1143.69,875.743" style="fill:none;stroke:rgb(82,89,97);stroke-width:3.33px;stroke-linecap:round;stroke-linejoin:round;stroke-miterlimit:1.5;"/>
        <path d="M981.511,810.891C981.511,802.049 974.334,794.872 965.492,794.872L837.339,794.872C828.496,794.872 821.32,802.049 821.32,810.891L821.32,939.044C821.32,947.887 828.496,955.063 837.339,955.063L965.492,955.063C974.334,955.063 981.511,947.887 981.511,939.044L981.511,810.891Z" style="fill:rgb(80,90,99);"/>
        <g transform="matrix(1,0,0,1,869.496,907.593)">
            <text x="0px" y="0px" style="font-family:'RobotoMono-Medium', 'Roboto Mono', monospace;font-size:106.667px;fill:white;">H</text>
        </g>
    </g>
    <g>
        <g transform="matrix(536.343,-1.29459e-13,1.29459e-13,536.343,494.831,345.5)">
            <circle cx="-0.332" cy="-0.121" r="0.5" style="fill:url(#_Radial3);"/>
        </g>
        <g transform="matrix(-4.55493,0,0,4.55493,2184.77,-1236.06)">
            <ellipse cx="410.134" cy="332.981" rx="58.875" ry="58.875" style="fill:none;stroke:rgb(165,165,165);stroke-width:2.83px;"/>
        </g>
        <g transform="matrix(4.55493,0,0,4.55493,-1551.49,-1297.31)">
            <path d="M353.664,343.003C356.281,340.709 360.291,338.879 365.042,337.423C379.221,333.08 400.01,332.075 410.133,332.075C415.607,332.075 420.905,332.269 425.933,332.631C431.196,333.01 436.162,333.574 440.721,334.294C445.591,335.063 469.009,339.128 469.009,347.334" style="fill:none;fill-rule:nonzero;stroke:rgb(165,165,165);stroke-width:2.83px;stroke-linecap:round;stroke-linejoin:round;stroke-dasharray:5.67,8.5;"/>
        </g>
        <g transform="matrix(4.55493,0,0,4.55493,-1551.49,-1236.06)">
            <path d="M410.133,391.856C423.157,391.856 433.715,365.497 433.715,332.981C433.715,300.465 423.157,274.106 410.133,274.106" style="fill:none;fill-rule:nonzero;stroke:rgb(165,165,165);stroke-width:2.83px;stroke-linecap:round;stroke-linejoin:round;stroke-dasharray:5.67,8.5;"/>
        </g>
        <g transform="matrix(4.55493,0,0,4.55493,-1551.49,-1236.06)">
            <path d="M418.039,277.496C415.568,275.301 412.906,274.106 410.133,274.106C397.11,274.106 386.552,300.465 386.552,332.981C386.552,365.497 397.11,391.856 410.133,391.856C416.353,391.856 421.104,385.929 424.095,380.434M433.649,328.539C433.476,322.764 432.969,317.22 432.178,312.029" style="fill:none;fill-rule:nonzero;stroke:rgb(165,165,165);stroke-width:2.83px;stroke-linecap:round;stroke-linejoin:round;"/>
        </g>
        <g transform="matrix(4.55493,0,0,4.55493,-1551.49,-1227.86)">
            <path d="M358.451,324.7C354.1,326.879 351.258,329.643 351.258,332.086C351.258,340.205 377.618,346.786 410.133,346.786C442.649,346.786 469.009,340.205 469.009,332.086C469.009,330.001 467.395,328.014 464.475,326.204M440.07,318.944C435.659,318.268 430.877,317.736 425.824,317.375" style="fill:none;fill-rule:nonzero;stroke:rgb(165,165,165);stroke-width:2.83px;stroke-linecap:round;stroke-linejoin:round;"/>
        </g>
        <g transform="matrix(-2.41888,-3.85958,3.85958,-2.41888,35.2779,1838.6)">
            <g transform="matrix(2.93963e-16,-0.370321,-1,7.67064e-16,612.391,319.709)">
                <path d="M233.353,356.01L279.41,356.01" style="fill:none;fill-rule:nonzero;stroke:rgb(12,123,136);stroke-width:3.85px;stroke-linecap:round;stroke-linejoin:round;"/>
            </g>
            <g transform="matrix(1,0,0,1,0,-171.654)">
                <path d="M251.065,389.476L261.698,389.476L256.381,377.454L251.065,389.476Z" style="fill:rgb(12,123,136);"/>
            </g>
        </g>
    </g>
    <g transform="matrix(1,0,0,1,0,590.788)">
        <g transform="matrix(536.343,-1.29459e-13,1.29459e-13,536.343,494.831,345.5)">
            <circle cx="-0.332" cy="-0.121" r="0.5" style="fill:url(#_Radial4);"/>
        </g>
        <g transform="matrix(-4.55493,0,0,4.55493,2184.77,-1236.06)">
            <ellipse cx="410.134" cy="332.981" rx="58.875" ry="58.875" style="fill:none;stroke:rgb(165,165,165);stroke-width:2.83px;"/>
        </g>
        <g transform="matrix(4.55493,0,0,4.55493,-1551.49,-1297.31)">
            <path d="M353.664,343.003C356.281,340.709 360.291,338.879 365.042,337.423C379.221,333.08 400.01,332.075 410.133,332.075C415.607,332.075 420.905,332.269 425.933,332.631C431.196,333.01 436.162,333.574 440.721,334.294C445.591,335.063 469.009,339.128 469.009,347.334" style="fill:none;fill-rule:nonzero;stroke:rgb(165,165,165);stroke-width:2.83px;stroke-linecap:round;stroke-linejoin:round;stroke-dasharray:5.67,8.5;"/>
        </g>
        <g transform="matrix(4.55493,0,0,4.55493,-1551.49,-1236.06)">
            <path d="M410.133,391.856C423.157,391.856 433.715,365.497 433.715,332.981C433.715,300.465 423.157,274.106 410.133,274.106" style="fill:none;fill-rule:nonzero;stroke:rgb(165,165,165);stroke-width:2.83px;stroke-linecap:round;stroke-linejoin:round;stroke-dasharray:5.67,8.5;"/>
        </g>
        <g transform="matrix(4.55493,0,0,4.55493,-1551.49,-1236.06)">
            <path d="M418.039,277.496C415.568,275.301 412.906,274.106 410.133,274.106C397.11,274.106 386.552,300.465 386.552,332.981C386.552,365.497 397.11,391.856 410.133,391.856C416.353,391.856 421.104,385.929 424.095,380.434M433.649,328.539C433.476,322.764 432.969,317.22 432.178,312.029" style="fill:none;fill-rule:nonzero;stroke:rgb(165,165,165);stroke-width:2.83px;stroke-linecap:round;stroke-linejoin:round;"/>
        </g>
        <g transform="matrix(4.55493,0,0,4.55493,-1551.49,-1227.86)">
            <path d="M358.451,324.7C354.1,326.879 351.258,329.643 351.258,332.086C351.258,340.205 377.618,346.786 410.133,346.786C442.649,346.786 469.009,340.205 469.009,332.086C469.009,330.001 467.395,328.014 464.475,326.204M440.07,318.944C435.659,318.268 430.877,317.736 425.824,317.375" style="fill:none;fill-rule:nonzero;stroke:rgb(165,165,165);stroke-width:2.83px;stroke-linecap:round;stroke-linejoin:round;"/>
        </g>
        <g transform="matrix(2.27746,3.94468,-3.94468,2.27746,654.344,-1259.92)">
            <g transform="matrix(2.93963e-16,-0.370321,-1,7.67064e-16,612.391,319.709)">
                <path d="M233.353,356.01L279.41,356.01" style="fill:none;fill-rule:nonzero;stroke:rgb(12,123,136);stroke-width:3.85px;stroke-linecap:round;stroke-linejoin:round;"/>
            </g>
            <g transform="matrix(1,0,0,1,0,-171.654)">
                <path d="M251.065,389.476L261.698,389.476L256.381,377.454L251.065,389.476Z" style="fill:rgb(12,123,136);"/>
            </g>
        </g>
    </g>
    <defs>
        <radialGradient id="_Radial1" cx="0" cy="0" r="1" gradientUnits="userSpaceOnUse" gradientTransform="matrix(-0.211309,-0.453154,-0.453154,0.211309,-0.582231,-0.370922)"><stop offset="0" style="stop-color:rgb(237,237,237);stop-opacity:1"/><stop offset="1" style="stop-color:rgb(204,204,204);stop-opacity:1"/></radialGradient>
        <radialGradient id="_Radial2" cx="0" cy="0" r="1" gradientUnits="userSpaceOnUse" gradientTransform="matrix(-0.211309,-0.453154,-0.453154,0.211309,-0.582231,-0.370922)"><stop offset="0" style="stop-color:rgb(237,237,237);stop-opacity:1"/><stop offset="1" style="stop-color:rgb(204,204,204);stop-opacity:1"/></radialGradient>
        <radialGradient id="_Radial3" cx="0" cy="0" r="1" gradientUnits="userSpaceOnUse" gradientTransform="matrix(-0.211309,-0.453154,-0.453154,0.211309,-0.582232,-0.370923)"><stop offset="0" style="stop-color:rgb(237,237,237);stop-opacity:1"/><stop offset="1" style="stop-color:rgb(204,204,204);stop-opacity:1"/></radialGradient>
        <radialGradient id="_Radial4" cx="0" cy="0" r="1" gradientUnits="userSpaceOnUse" gradientTransform="matrix(-0.211309,-0.453154,-0.453154,0.211309,-0.582232,-0.370923)"><stop offset="0" style="stop-color:rgb(237,237,237);stop-opacity:1"/><stop offset="1" style="stop-color:rgb(204,204,204);stop-opacity:1"/></radialGradient>
    </defs>
</svg>
