<?xml version="1.0" encoding="UTF-8" standalone="no"?>
<!DOCTYPE svg PUBLIC "-//W3C//DTD SVG 1.1//EN" "http://www.w3.org/Graphics/SVG/1.1/DTD/svg11.dtd">
<svg width="100%" height="100%" viewBox="0 0 183 183" version="1.1" xmlns="http://www.w3.org/2000/svg" xmlns:xlink="http://www.w3.org/1999/xlink" xml:space="preserve" xmlns:serif="http://www.serif.com/" style="fill-rule:evenodd;clip-rule:evenodd;stroke-miterlimit:22.9256;">
    <g transform="matrix(172.562,-6.24779e-14,6.24779e-14,172.562,148.613,113.149)">
        <circle cx="-0.332" cy="-0.121" r="0.5" style="fill:url(#_Radial1);"/>
    </g>
    <g transform="matrix(-1.4655,0,0,1.4655,467.057,-395.7)">
        <circle cx="256.414" cy="332.981" r="58.875" style="fill:none;stroke:rgb(165,165,165);stroke-width:1.93px;"/>
    </g>
    <g transform="matrix(1.4655,0,0,1.4655,-284.492,-415.408)">
        <path d="M199.945,343.003C202.562,340.709 206.571,338.879 211.323,337.423C225.502,333.08 246.291,332.075 256.414,332.075C261.887,332.075 267.186,332.269 272.214,332.631C277.477,333.01 282.443,333.574 287.002,334.294C291.872,335.063 315.289,339.128 315.289,347.334" style="fill:none;fill-rule:nonzero;stroke:rgb(165,165,165);stroke-width:1.93px;stroke-linecap:round;stroke-linejoin:round;stroke-dasharray:3.87,5.8;"/>
    </g>
    <g transform="matrix(1.4655,0,0,1.4655,-284.492,-393.062)">
        <path d="M204.732,324.7C200.381,326.879 197.539,329.643 197.539,332.086C197.539,340.205 223.899,346.786 256.414,346.786C288.93,346.786 315.289,340.205 315.289,332.086C315.289,330.001 313.676,328.014 310.755,326.204M286.351,318.944C281.939,318.268 277.158,317.736 272.104,317.375" style="fill:none;fill-rule:nonzero;stroke:rgb(165,165,165);stroke-width:1.93px;stroke-linecap:round;stroke-linejoin:round;"/>
    </g>
    <g transform="matrix(1.4655,0,0,1.4655,-284.492,-395.7)">
        <path d="M256.414,391.856C269.438,391.856 279.995,365.497 279.995,332.981C279.995,300.465 269.438,274.106 256.414,274.106" style="fill:none;fill-rule:nonzero;stroke:rgb(165,165,165);stroke-width:1.93px;stroke-linecap:round;stroke-linejoin:round;stroke-dasharray:3.87,5.8;"/>
    </g>
    <g transform="matrix(1.4655,0,0,1.4655,-284.492,-395.7)">
        <path d="M264.32,277.496C261.849,275.301 259.187,274.106 256.414,274.106C243.391,274.106 232.833,300.465 232.833,332.981C232.833,365.497 243.391,391.856 256.414,391.856C262.634,391.856 267.385,385.929 270.375,380.434M279.929,328.539C279.757,322.764 279.25,317.22 278.459,312.029" style="fill:none;fill-rule:nonzero;stroke:rgb(165,165,165);stroke-width:1.93px;stroke-linecap:round;stroke-linejoin:round;"/>
    </g>
    <g transform="matrix(0,-1.4655,-1.4655,0,612.966,434.26)">
        <path d="M233.353,356.01L279.41,356.01" style="fill:none;fill-rule:nonzero;stroke:rgb(12,123,136);stroke-width:2.42px;stroke-linecap:round;stroke-linejoin:round;"/>
    </g>
    <g transform="matrix(1.4655,0,0,1.4655,-284.492,-543.668)">
        <path d="M251.065,389.476L261.698,389.476L256.381,377.454L251.065,389.476Z" style="fill:rgb(12,123,136);"/>
    </g>
    <defs>
        <radialGradient id="_Radial1" cx="0" cy="0" r="1" gradientUnits="userSpaceOnUse" gradientTransform="matrix(-0.211309,-0.453154,-0.453154,0.211309,-0.582231,-0.370922)"><stop offset="0" style="stop-color:rgb(237,237,237);stop-opacity:1"/><stop offset="1" style="stop-color:rgb(204,204,204);stop-opacity:1"/></radialGradient>
    </defs>
</svg>
