<?xml version="1.0" encoding="UTF-8" standalone="no"?>
<!DOCTYPE svg PUBLIC "-//W3C//DTD SVG 1.1//EN" "http://www.w3.org/Graphics/SVG/1.1/DTD/svg11.dtd">
<svg width="100%" height="100%" viewBox="0 0 92 92" version="1.1" xmlns="http://www.w3.org/2000/svg" xmlns:xlink="http://www.w3.org/1999/xlink" xml:space="preserve" xmlns:serif="http://www.serif.com/" style="fill-rule:evenodd;clip-rule:evenodd;stroke-miterlimit:22.9256;">
    <g transform="matrix(87.852,-2.12051e-14,2.12051e-14,87.852,74.4678,55.9039)">
        <circle cx="-0.332" cy="-0.121" r="0.5" style="fill:url(#_Radial1);"/>
    </g>
    <g transform="matrix(-0.746088,0,0,0.746088,351.277,-203.153)">
        <ellipse cx="410.134" cy="332.981" rx="58.875" ry="58.875" style="fill:none;stroke:rgb(165,165,165);stroke-width:2.83px;"/>
    </g>
    <g transform="matrix(0.746088,0,0,0.746088,-260.715,-213.186)">
        <path d="M353.664,343.003C356.281,340.709 360.291,338.879 365.042,337.423C379.221,333.08 400.01,332.075 410.133,332.075C415.607,332.075 420.905,332.269 425.933,332.631C431.196,333.01 436.162,333.574 440.721,334.294C445.591,335.063 469.009,339.128 469.009,347.334" style="fill:none;fill-rule:nonzero;stroke:rgb(165,165,165);stroke-width:2.83px;stroke-linecap:round;stroke-linejoin:round;stroke-dasharray:5.67,8.5;"/>
    </g>
    <g transform="matrix(0.746088,0,0,0.746088,-260.715,-203.153)">
        <path d="M410.133,391.856C423.157,391.856 433.715,365.497 433.715,332.981C433.715,300.465 423.157,274.106 410.133,274.106" style="fill:none;fill-rule:nonzero;stroke:rgb(165,165,165);stroke-width:2.83px;stroke-linecap:round;stroke-linejoin:round;stroke-dasharray:5.67,8.5;"/>
    </g>
    <g transform="matrix(0.746088,0,0,0.746088,-260.715,-203.153)">
        <path d="M418.039,277.496C415.568,275.301 412.906,274.106 410.133,274.106C397.11,274.106 386.552,300.465 386.552,332.981C386.552,365.497 397.11,391.856 410.133,391.856C416.353,391.856 421.104,385.929 424.095,380.434M433.649,328.539C433.476,322.764 432.969,317.22 432.178,312.029" style="fill:none;fill-rule:nonzero;stroke:rgb(165,165,165);stroke-width:2.83px;stroke-linecap:round;stroke-linejoin:round;"/>
    </g>
    <g transform="matrix(0.746088,0,0,0.746088,-260.715,-201.81)">
        <path d="M358.451,324.7C354.1,326.879 351.258,329.643 351.258,332.086C351.258,340.205 377.618,346.786 410.133,346.786C442.649,346.786 469.009,340.205 469.009,332.086C469.009,330.001 467.395,328.014 464.475,326.204M440.07,318.944C435.659,318.268 430.877,317.736 425.824,317.375" style="fill:none;fill-rule:nonzero;stroke:rgb(165,165,165);stroke-width:2.83px;stroke-linecap:round;stroke-linejoin:round;"/>
    </g>
    <g transform="matrix(-0.396208,-0.632192,0.632192,-0.396208,-0.806106,300.471)">
        <g transform="matrix(2.93963e-16,-0.370321,-1,7.67064e-16,612.391,319.709)">
            <path d="M233.353,356.01L279.41,356.01" style="fill:none;fill-rule:nonzero;stroke:rgb(12,123,136);stroke-width:3.85px;stroke-linecap:round;stroke-linejoin:round;"/>
        </g>
        <g transform="matrix(1,0,0,1,0,-171.654)">
            <path d="M251.065,389.476L261.698,389.476L256.381,377.454L251.065,389.476Z" style="fill:rgb(12,123,136);"/>
        </g>
    </g>
    <defs>
        <radialGradient id="_Radial1" cx="0" cy="0" r="1" gradientUnits="userSpaceOnUse" gradientTransform="matrix(-0.211309,-0.453154,-0.453154,0.211309,-0.582232,-0.370923)"><stop offset="0" style="stop-color:rgb(237,237,237);stop-opacity:1"/><stop offset="1" style="stop-color:rgb(204,204,204);stop-opacity:1"/></radialGradient>
    </defs>
</svg>
