<?xml version="1.0" encoding="UTF-8" standalone="no"?>
<!DOCTYPE svg PUBLIC "-//W3C//DTD SVG 1.1//EN" "http://www.w3.org/Graphics/SVG/1.1/DTD/svg11.dtd">
<svg width="100%" height="100%" viewBox="0 0 1800 520" version="1.1" xmlns="http://www.w3.org/2000/svg" xmlns:xlink="http://www.w3.org/1999/xlink" xml:space="preserve" xmlns:serif="http://www.serif.com/" style="fill-rule:evenodd;clip-rule:evenodd;stroke-linecap:round;stroke-linejoin:round;stroke-miterlimit:1.5;">
    <g>
        <path d="M655.739,268.061L1143.69,268.061" style="fill:none;stroke:rgb(82,89,97);stroke-width:3.33px;"/>
    </g>
    <g>
        <path d="M981.511,203.209C981.511,194.367 974.334,187.19 965.492,187.19L837.339,187.19C828.496,187.19 821.32,194.367 821.32,203.209L821.32,331.362C821.32,340.205 828.496,347.382 837.339,347.382L965.492,347.382C974.334,347.382 981.511,340.205 981.511,331.362L981.511,203.209Z" style="fill:rgb(80,90,99);"/>
    </g>
    <g>
        <text x="869.496px" y="299.911px" style="font-family:'RobotoMono-Medium', 'Roboto Mono', monospace;font-size:106.667px;fill:white;">T</text>
    </g>
    <circle cx="322.786" cy="270.792" r="217.972" style="fill:url(#_Radial1);"/>
    <circle cx="322.687" cy="270.823" r="217.972" style="fill:none;stroke:rgb(165,165,165);stroke-width:10.48px;stroke-linecap:butt;stroke-linejoin:miter;stroke-miterlimit:22.9256;"/>
    <path d="M113.62,258.141C123.309,249.648 138.155,242.873 155.744,237.482C208.239,221.403 285.206,217.682 322.684,217.682C342.95,217.682 362.565,218.401 381.18,219.741C400.665,221.144 419.051,223.232 435.929,225.898C453.96,228.745 540.66,243.795 540.66,274.175" style="fill:none;fill-rule:nonzero;stroke:rgb(165,165,165);stroke-width:10.48px;stroke-miterlimit:22.9256;stroke-dasharray:20.99,31.47;"/>
    <path d="M322.684,488.795C370.902,488.795 409.991,391.206 409.991,270.823C409.991,150.44 370.902,52.851 322.684,52.851" style="fill:none;fill-rule:nonzero;stroke:rgb(165,165,165);stroke-width:10.48px;stroke-miterlimit:22.9256;stroke-dasharray:20.99,31.47;"/>
    <path d="M351.954,65.402C342.806,57.275 332.95,52.851 322.684,52.851C274.469,52.851 235.38,150.44 235.38,270.823C235.38,391.206 274.469,488.795 322.684,488.795C345.712,488.795 363.302,466.852 374.375,446.507M409.747,254.377C409.106,232.997 407.229,212.471 404.301,193.253" style="fill:none;fill-rule:nonzero;stroke:rgb(165,165,165);stroke-width:10.48px;stroke-miterlimit:22.9256;"/>
    <path d="M131.342,246.829C115.234,254.896 104.712,265.129 104.712,274.174C104.712,304.233 202.304,328.597 322.684,328.597C443.067,328.597 540.66,304.233 540.66,274.174C540.66,266.455 534.684,259.098 523.873,252.397M433.519,225.518C417.188,223.016 399.484,221.046 380.776,219.709" style="fill:none;fill-rule:nonzero;stroke:rgb(165,165,165);stroke-width:10.48px;stroke-miterlimit:22.9256;"/>
    <g>
        <path d="M321.789,274.178L268.283,307.711" style="fill:none;fill-rule:nonzero;stroke:rgb(12,123,136);stroke-width:10.75px;stroke-miterlimit:22.9256;"/>
    </g>
    <g>
        <path d="M283.705,321.273L262.8,287.916L235.539,328.233L283.705,321.273Z" style="fill:rgb(12,123,136);"/>
    </g>
    <circle cx="1476.1" cy="270.792" r="217.972" style="fill:url(#_Radial2);"/>
    <circle cx="1476" cy="270.823" r="217.972" style="fill:none;stroke:rgb(165,165,165);stroke-width:10.48px;stroke-linecap:butt;stroke-linejoin:miter;stroke-miterlimit:22.9256;"/>
    <path d="M1266.94,258.141C1276.62,249.648 1291.47,242.873 1309.06,237.482C1361.56,221.403 1438.52,217.682 1476,217.682C1496.27,217.682 1515.88,218.401 1534.5,219.741C1553.98,221.144 1572.37,223.232 1589.25,225.898C1607.28,228.745 1693.98,243.795 1693.98,274.175" style="fill:none;fill-rule:nonzero;stroke:rgb(165,165,165);stroke-width:10.48px;stroke-miterlimit:22.9256;stroke-dasharray:20.99,31.47;"/>
    <path d="M1476,488.795C1524.22,488.795 1563.31,391.206 1563.31,270.823C1563.31,150.44 1524.22,52.851 1476,52.851" style="fill:none;fill-rule:nonzero;stroke:rgb(165,165,165);stroke-width:10.48px;stroke-miterlimit:22.9256;stroke-dasharray:20.99,31.47;"/>
    <path d="M1505.27,65.402C1496.12,57.275 1486.27,52.851 1476,52.851C1427.79,52.851 1388.7,150.44 1388.7,270.823C1388.7,391.206 1427.79,488.795 1476,488.795C1499.03,488.795 1516.62,466.852 1527.69,446.507M1563.06,254.377C1562.42,232.997 1560.55,212.471 1557.62,193.253" style="fill:none;fill-rule:nonzero;stroke:rgb(165,165,165);stroke-width:10.48px;stroke-miterlimit:22.9256;"/>
    <path d="M1284.66,246.829C1268.55,254.896 1258.03,265.129 1258.03,274.174C1258.03,304.233 1355.62,328.597 1476,328.597C1596.38,328.597 1693.98,304.233 1693.98,274.174C1693.98,266.455 1688,259.098 1677.19,252.397M1586.84,225.518C1570.51,223.016 1552.8,221.046 1534.09,219.709" style="fill:none;fill-rule:nonzero;stroke:rgb(165,165,165);stroke-width:10.48px;stroke-miterlimit:22.9256;"/>
    <path d="M1476.56,274.274L1337.74,313.296" style="fill:none;fill-rule:nonzero;stroke:rgb(12,123,136);stroke-width:10.7px;stroke-miterlimit:22.9256;"/>
    <g>
        <path d="M1373,323.995L1362.35,286.097L1324.83,317.092L1373,323.995Z" style="fill:rgb(12,123,136);"/>
    </g>
    <defs>
        <radialGradient id="_Radial1" cx="0" cy="0" r="1" gradientUnits="userSpaceOnUse" gradientTransform="matrix(-92.119,-197.55,-197.55,92.119,213.699,161.839)"><stop offset="0" style="stop-color:rgb(237,237,237);stop-opacity:1"/><stop offset="1" style="stop-color:rgb(204,204,204);stop-opacity:1"/></radialGradient>
        <radialGradient id="_Radial2" cx="0" cy="0" r="1" gradientUnits="userSpaceOnUse" gradientTransform="matrix(-92.119,-197.55,-197.55,92.119,1367.02,161.839)"><stop offset="0" style="stop-color:rgb(237,237,237);stop-opacity:1"/><stop offset="1" style="stop-color:rgb(204,204,204);stop-opacity:1"/></radialGradient>
    </defs>
</svg>
